<svg width="24" height="24" viewBox="0 0 24 24" fill="none" xmlns="http://www.w3.org/2000/svg">
<path d="M11.9281 11.7539C10.6801 11.7539 9.66406 12.7699 9.66406 14.0179C9.66406 15.0219 10.3211 15.8739 11.2281 16.1699V18.1969C11.2281 18.5529 11.5161 18.8409 11.8721 18.8409C12.2281 18.8409 12.5161 18.5529 12.5161 18.1969V16.2019C13.4801 15.9419 14.1931 15.0629 14.1931 14.0179C14.1921 12.7689 13.1761 11.7539 11.9281 11.7539ZM11.9281 14.9939C11.3901 14.9939 10.9521 14.5559 10.9521 14.0179C10.9521 13.4799 11.3901 13.0419 11.9281 13.0419C12.4661 13.0419 12.9041 13.4799 12.9041 14.0179C12.9041 14.5559 12.4661 14.9939 11.9281 14.9939Z" fill="black"/>
<path d="M6.786 8.105V9.327H5.644C5.288 9.327 5 9.615 5 9.971V20.936C5 21.292 5.288 21.58 5.644 21.58H18.136C18.492 21.58 18.78 21.292 18.78 20.936V9.971C18.78 9.615 18.492 9.327 18.136 9.327H16.896V8.105C16.896 5.29 14.629 3 11.841 3C9.054 3 6.786 5.29 6.786 8.105ZM17.492 20.292H6.288V10.615H7.306C7.346 10.623 7.387 10.627 7.43 10.627C7.472 10.627 7.514 10.622 7.554 10.615H16.128C16.168 10.623 16.209 10.627 16.252 10.627C16.294 10.627 16.336 10.622 16.376 10.615H17.492V20.292ZM15.608 8.105V9.327H8.074V8.105C8.074 6 9.764 4.288 11.841 4.288C13.918 4.288 15.608 6 15.608 8.105Z" fill="black"/>
</svg>
